<?xml version="1.0" standalone="no"?>
<!DOCTYPE svg PUBLIC "-//W3C//DTD SVG 20010904//EN"
 "http://www.w3.org/TR/2001/REC-SVG-20010904/DTD/svg10.dtd">
<svg version="1.0" xmlns="http://www.w3.org/2000/svg"
 width="370.000000pt" height="370.000000pt" viewBox="0 0 370.000000 370.000000"
 preserveAspectRatio="xMidYMid meet">
<metadata>
Created by potrace 1.14, written by Peter Selinger 2001-2017
</metadata>
<g transform="translate(0.000000,370.000000) scale(0.100000,-0.100000)"
fill="#000000" stroke="none">
<path d="M541 3664 c-21 -18 -33 -38 -37 -65 l-7 -39 -83 0 c-62 0 -87 -4 -98
-16 -14 -14 -16 -171 -16 -1585 l0 -1569 33 -20 c17 -11 28 -20 22 -20 -24 -1
40 -40 66 -40 16 0 29 -4 29 -8 0 -5 22 -8 50 -7 27 1 54 -1 60 -5 5 -3 11
-44 13 -89 3 -68 7 -86 22 -97 10 -8 22 -14 27 -14 4 0 8 -7 8 -15 0 -33 64
-48 198 -48 45 0 111 1 147 1 36 0 103 0 150 0 47 0 114 0 150 0 36 0 103 0
150 0 47 0 114 0 150 0 36 0 103 0 150 0 47 0 114 0 150 0 36 0 103 0 150 0
47 0 114 0 150 0 36 0 103 0 150 0 47 0 114 0 150 0 36 0 103 0 150 0 47 0
114 0 150 0 36 0 102 -1 148 -1 45 0 115 2 155 4 39 2 72 1 72 -3 0 -14 27 -8
51 11 l23 19 1 841 c0 541 4 844 10 849 10 7 57 100 69 135 3 9 11 17 17 17
22 0 99 100 105 138 1 6 -4 12 -11 12 -16 0 -26 25 -19 44 8 20 -21 71 -53 94
-35 24 -89 37 -98 23 -3 -6 -10 -11 -14 -11 -4 0 -8 210 -7 468 0 377 -3 473
-14 497 -7 17 -18 48 -24 70 l-11 40 -60 2 c-33 2 -82 5 -110 8 l-50 6 3 54
c3 35 0 55 -7 55 -6 0 -11 10 -11 23 0 12 -7 31 -15 41 -8 11 -15 32 -15 46 0
14 -5 31 -12 38 -9 9 -265 12 -1090 12 l-1078 0 0 25 c0 92 -116 141 -189 79z
m134 -29 c14 -13 25 -36 25 -50 0 -25 -1 -25 -85 -25 -92 0 -97 4 -74 54 23
49 95 61 134 21z m461 -328 c33 -39 33 -99 -1 -133 l-25 -25 30 -45 31 -44
-33 0 c-28 0 -36 6 -56 40 -20 36 -27 40 -62 40 l-39 0 4 -40 c4 -39 3 -40
-25 -40 l-30 0 0 141 0 141 91 -4 c85 -3 92 -5 115 -31z m302 11 c-3 -21 -9
-23 -81 -26 l-78 -3 3 -31 3 -31 65 -1 c59 -1 65 -3 68 -23 3 -21 -1 -22 -65
-25 l-68 -3 -3 -32 -3 -33 80 0 c80 0 81 0 81 -25 l0 -25 -105 0 -105 0 0 140
0 140 106 0 c104 0 105 0 102 -22z m237 10 c29 -13 30 -17 12 -42 -11 -15 -17
-16 -35 -7 -11 6 -37 11 -57 11 -32 0 -36 -3 -33 -22 2 -17 16 -27 53 -41 69
-25 85 -42 85 -89 0 -33 -5 -41 -32 -58 -39 -23 -95 -26 -142 -6 -41 17 -50
30 -37 55 10 18 11 18 50 -1 53 -26 96 -21 96 11 0 19 -8 27 -40 38 -64 21
-83 34 -93 62 -20 57 24 101 100 101 26 0 59 -5 73 -12z m135 -79 c0 -99 9
-125 46 -139 26 -10 73 2 86 23 4 7 8 56 8 110 l0 97 30 0 30 0 0 -90 c0 -101
-15 -150 -53 -175 -32 -20 -93 -23 -135 -6 -50 21 -62 55 -62 171 l0 100 25 0
c25 0 25 -1 25 -91z m379 4 l43 -88 44 88 c41 80 47 87 74 87 l30 0 0 -140 0
-140 -25 0 c-25 0 -25 1 -26 93 l-1 92 -36 -77 c-50 -106 -64 -105 -119 5
l-42 82 0 -97 c-1 -98 -1 -98 -26 -98 l-25 0 0 140 0 140 33 0 c31 0 35 -4 76
-87z m481 62 c0 -24 -2 -25 -75 -25 l-75 0 0 -32 0 -33 65 3 65 4 0 -29 0 -28
-65 3 -65 4 0 -36 0 -36 75 0 c73 0 75 -1 75 -25 l0 -25 -105 0 -105 0 0 140
0 140 105 0 105 0 0 -25z m18 -856 l-3 -431 -335 -1 -335 0 -3 432 -2 431 340
0 340 0 -2 -431z m-1100 252 c7 -20 7 -35 -2 -52 l-12 -24 -524 0 -525 0 -9
27 c-7 18 -6 35 2 53 l12 25 524 0 524 0 10 -29z m-12 -196 c18 -25 18 -45 -2
-73 l-15 -22 -515 0 -514 0 -12 25 c-15 34 0 77 30 85 13 3 246 5 519 4 470
-1 497 -2 509 -19z m-6 -205 c24 -24 25 -48 4 -78 l-15 -22 -509 0 c-449 0
-510 2 -524 16 -22 21 -20 60 4 84 19 19 33 20 520 20 487 0 501 -1 520 -20z
m1134 -606 c8 -20 8 -68 0 -88 -6 -14 -111 -16 -1090 -16 -1061 0 -1084 0
-1094 19 -5 11 -10 29 -10 41 0 12 5 30 10 41 10 19 33 19 1094 19 979 0 1084
-2 1090 -16z m-60 -206 c-4 -7 -24 -32 -43 -55 l-35 -43 -1022 0 c-1117 0
-1034 -4 -1034 55 0 59 -87 55 1077 55 849 0 1063 -3 1057 -12z m-1389 -253
l0 -50 -370 0 -370 0 -3 39 c-6 71 -32 67 375 64 l368 -3 0 -50z m1038 -177
c-5 -7 -25 -32 -43 -55 l-33 -43 -848 0 c-925 0 -859 -4 -859 55 0 59 -71 55
902 55 711 0 889 -3 881 -12z m412 -43 l0 -50 -92 -3 c-51 -1 -93 0 -93 3 0 3
10 16 23 29 12 13 32 35 45 50 20 23 29 27 70 24 l47 -3 0 -50z m-575 -160 c0
-3 -16 -30 -36 -60 l-37 -55 -768 0 -768 0 -7 36 c-4 20 -2 46 5 60 l11 24
800 0 c440 0 800 -2 800 -5z m569 -9 c7 -8 11 -34 9 -58 l-3 -43 -170 -3
c-226 -4 -223 -5 -165 57 44 47 50 50 106 54 150 9 212 7 223 -7z m-720 -210
c7 -8 10 -34 9 -58 l-3 -43 -732 -3 -732 -2 -7 36 c-4 20 -2 46 5 60 l11 24
719 0 c604 0 720 -2 730 -14z"/>
<path d="M984 3240 l-1 -50 48 0 c51 0 79 18 79 50 0 32 -28 50 -79 50 l-47 0
0 -50z"/>
<path d="M2305 2753 c-73 -20 -121 -103 -111 -190 6 -53 34 -122 63 -155 13
-15 20 -35 22 -64 1 -14 45 -34 76 -34 39 0 75 21 75 44 0 12 14 41 30 65 78
116 74 251 -9 311 -31 21 -108 34 -146 23z"/>
<path d="M2170 2284 c-82 -43 -120 -83 -120 -128 0 -74 83 -104 297 -106 177
-1 260 15 293 58 46 58 13 117 -100 176 l-70 37 -10 -26 c-6 -15 -10 -29 -10
-33 0 -3 -10 -37 -21 -74 -20 -62 -39 -81 -39 -40 0 9 -6 29 -14 44 -13 24
-12 28 5 44 24 22 9 54 -26 54 -32 0 -49 -29 -29 -52 13 -14 13 -23 3 -60 -7
-23 -16 -47 -20 -52 -7 -8 -59 140 -59 169 0 26 -16 24 -80 -11z"/>
</g>
</svg>
